<svg xmlns="http://www.w3.org/2000/svg" viewBox="0 0 428.8 464.2"><defs><style>.cls-1,.cls-12,.cls-2,.cls-3,.cls-4,.cls-5,.cls-6,.cls-7,.cls-8,.cls-9{fill:none;}.cls-1,.cls-12,.cls-9{stroke:#343335;}.cls-1,.cls-12,.cls-18,.cls-2,.cls-3,.cls-4,.cls-5,.cls-6,.cls-7,.cls-8,.cls-9{stroke-miterlimit:10;}.cls-1,.cls-2,.cls-3,.cls-4,.cls-5{stroke-width:5px;}.cls-1,.cls-11,.cls-2,.cls-3,.cls-4,.cls-5,.cls-7,.cls-8,.cls-9{isolation:isolate;}.cls-2,.cls-8{stroke:#a0a0a0;}.cls-3,.cls-7{stroke:#ffd400;}.cls-4,.cls-6{stroke:#ff4800;}.cls-5{stroke:#dedede;}.cls-6,.cls-7,.cls-8,.cls-9{stroke-width:2px;}.cls-10{fill:#343335;}.cls-11,.cls-13{fill:#5b5b5b;}.cls-11{opacity:0.6;}.cls-14{fill:#8f9090;}.cls-15{fill:#4b4b4b;}.cls-16{fill:#4e4e4e;}.cls-17{fill:#393939;}.cls-18{font-size:26.87px;stroke:#000;stroke-width:0.5px;font-family:TimesNewRomanPSMT, Times New Roman;}.cls-19{font-family:AdobeSongStd-Light-GBpc-EUC-H, Adobe Song Std;letter-spacing:0em;}</style></defs><title>资源 22</title><g id="图层_2" data-name="图层 2"><g id="circle"><path class="cls-1" d="M149.17,448.84C71.44,422.58,21.29,351.6,21.29,265a197,197,0,0,1,8.07-56"/><path class="cls-2" d="M359.7,400.4c-35.93,38.88-84.6,61.3-141.71,61.3-22,0-49-6.17-68.82-12.86"/><path class="cls-3" d="M409.84,221.41A197.48,197.48,0,0,1,414.69,265c0,51.52-22.57,100.33-55,135.4"/><path class="cls-4" d="M402.71,197.27a195.08,195.08,0,0,1,7.13,24.14"/><path class="cls-5" d="M29.36,209a196.78,196.78,0,0,1,373.35-11.76"/><line class="cls-6" x1="397.82" y1="199.58" x2="408.64" y2="195.52"/><line class="cls-6" x1="404.43" y1="222.74" x2="415.24" y2="218.67"/><line class="cls-7" x1="405.06" y1="224.4" x2="415.87" y2="220.33"/><line class="cls-7" x1="356.04" y1="395.85" x2="364.7" y2="403.49"/><line class="cls-8" x1="354.8" y1="397.26" x2="363.46" y2="404.9"/><line class="cls-8" x1="152.18" y1="444.12" x2="147.53" y2="454.7"/><line class="cls-9" x1="150.47" y1="443.37" x2="145.82" y2="453.94"/><line class="cls-9" x1="34.98" y1="210.6" x2="23.74" y2="207.94"/></g><g id="图层_1-2" data-name="图层 1"><path class="cls-10" d="M405.4,91H391.3v4.2s-1.3.1-1.3.6,1.6,1.6,1.6,1.6,1.3,7.9,5.2,7.9l.1,4.8s-.4,2.2-5.3,2.3v.8h13.1v-.8c-4.8-.1-5.3-2.3-5.3-2.3l.1-4.8c3.9,0,5.2-7.9,5.2-7.9s1.6-1,1.6-1.6-1.3-.6-1.3-.6V91H390.9"/><circle class="cls-11" cx="74.1" cy="132.3" r="74.1"/><path class="cls-10" d="M60.1,109s4.8-13.3,22.1-15.2c0,0-17.9,9.5-16.9,16a3.74,3.74,0,0,0,2.4-.9c1.3-1,11-11.6,20.8-12,0,0-19.6,13.7-23.6,20.5,0,0-3.7,1.5-1.4-6.1C63.5,111.4,59.9,111.9,60.1,109Z"/><path class="cls-10" d="M68.2,119s-3.9-4.9,19.7-14.6c0,0-16,9.8-16.9,15.1C71,119.5,69.2,120.3,68.2,119Z"/><circle class="cls-11" cx="172.2" cy="75.8" r="38.2"/><line class="cls-12" x1="154.9" y1="33.1" x2="154.7" y2="33.1"/><polyline class="cls-10" points="160.6 7.9 162.9 22.3 170.6 13.2 166.5 24.6 176.8 21.1 169.1 28.5 176.8 30.8 166.8 33.1 166.5 33.1"/><path class="cls-10" d="M167,33.1h-.2s1.1-8.6-6.1-8.6-6.1,8.6-6.1,8.6l-10-1.7,7.9-2.4-7.9-7.9,10,3.8-4.3-12.2,8.5,10.2,1.8-15"/><path class="cls-10" d="M244.3.9s-3.5-.5-3.6,2.7a19.37,19.37,0,0,0,7.6,6s4.3-1-1.7-4.8c0,0,7.1-1.8,8.8,9.4,0,0,.7,10-9.4,9.6,0,0-1.3-.6,1.1-1.5s-2.8-1.9-3.2-.9c0,0-7.1,1.8-7.2-4.2s3.6-4.8,3.6-4.8-3.2,3,.9,5.4c0,0,5.4-1.3,8.1,2.4,0,0,3.9-3-5.5-5.1,0,0-2.8-1.3,1.1-1.7l-.1-2s-7.4-1.6-7.4-6.4a4.69,4.69,0,0,1,4.4-5S246.2.3,244.3.9Z"/><path class="cls-10" d="M420.5,121.9l1.4,12.8,1.4.6,1-9.9,1.4,10.4,1.2.6,1.3-7,.6,8.6s-8.3,2.7-8.3,15.2h-.1c0-12.6-8.3-15.2-8.3-15.2l.6-8.6,1.3,7,1.2-.6,1.4-10.4,1,9.9,1.4-.6,1.5-12.8"/><polyline class="cls-12" points="403 201.5 403 201 403.1 201.7"/><polygon class="cls-10" points="341.7 41.2 352.2 41.2 342.4 52.1 349.1 50.9 349.9 53.1 352.6 53.6 342.7 63.3 347.5 54.7 335.8 56.1 340.4 47.2 338.8 46.4 341.7 41.2"/><circle class="cls-11" cx="252.8" cy="72.3" r="42.4"/><circle class="cls-11" cx="324.3" cy="97.2" r="32.8"/><circle class="cls-11" cx="355.1" cy="123.4" r="7.1"/><circle class="cls-11" cx="365.3" cy="133.4" r="6.3" transform="translate(-23.24 149.95) rotate(-22.5)"/><circle class="cls-13" cx="218.4" cy="264" r="50.1"/><g id="black"><path class="cls-14" d="M207.8,247.8c-2.9-1.9-10.4-7.9-1.6-12.6,0,0,18.5-6.1,31.1,3.6a1.34,1.34,0,0,1,.1,2c-1.6,1.6-4.8,4.4-5.7,4.4-1.3,0,2.8,1.7,7.5-3.2,0,0,7.5-.5,12.3,17.3,0,0,2.5,15.8-10.5,16,0,0-6.9.7-7.3,3.3,0,0,.6,19.3,0,19.5l-5.8.6-.4-8a.55.55,0,0,0-1-.3,17.17,17.17,0,0,1-3.1,4,1.43,1.43,0,0,1-2.3-1l-.4-5.3s-1.8-.3-1.8.5-.6,8.6-.6,8.6-4.2.1-4.3-.6-2-8.7-2-8.7l-1.5.4s1.2,10.1-1.3,10a25.88,25.88,0,0,1-3.5-.3s-2.8,1.7-.6-20.8c0,0-18.8-.8-17.8-11.1s1.9-16.9,12.4-26.3c0,0,1.1,1,1.8,6.5a6.65,6.65,0,0,0,6.1,2.5C208,248.6,208.1,248,207.8,247.8Z"/><path class="cls-15" d="M193.7,263.9a10.24,10.24,0,0,1,9.8-8c7.2-.3,9.4,8,9.8,10.2a.92.92,0,0,1-.3.9,14.86,14.86,0,0,1-9.4,3C197.4,270,193.7,266.6,193.7,263.9Z"/><path class="cls-16" d="M225.9,264.4s2.5-7.8,10.2-8.4c7-.6,9.1,7.6,9.4,9v.4c-.3,1-2,4.5-9.5,4.8C227.2,270.4,225.6,266.3,225.9,264.4Z"/><path class="cls-17" d="M217.2,268.5c-.9,1.7-2.9,6.3-2.4,14.1,0,0,6.2,1.6,9.6,0,0,0,.6-10.3-3.3-13.8a.19.19,0,0,0-.3.1l-.3,10.8h-2.1l-.6-11C217.7,268.3,217.3,268.2,217.2,268.5Z"/></g></g><g id="text"><text class="cls-18" transform="translate(47.65 148.28)">1433</text><text class="cls-18" transform="translate(151.45 85.04)">384</text><text class="cls-18" transform="translate(236.11 78.37)">467</text><text class="cls-18" transform="translate(306.98 105.66)">279</text><text class="cls-18" transform="translate(377.65 141.14)">10</text><text class="cls-18" transform="translate(361.2 117.52)">12</text><text class="cls-18" transform="translate(364.3 227.19)">84</text><text class="cls-18" transform="translate(348.95 337.19)">715 </text><text class="cls-18" transform="translate(249.28 433.77)">841 </text><text class="cls-18" transform="translate(69.36 373.61)">1,085</text><text class="cls-18" transform="translate(171 237.11) rotate(-51.24)">2<tspan class="cls-19" x="13.44" y="0">,</tspan></text><text class="cls-18" transform="translate(185.3 222.82) rotate(-45.01)">5</text><text class="cls-18" transform="translate(193.56 214.48) rotate(-19.76)">8</text><text class="cls-18" transform="translate(205.01 208.84) rotate(-0.12)">6</text><text class="cls-18" transform="translate(223.52 207.45) rotate(22.61)">c</text><text class="cls-18" transform="translate(233.67 210.94) rotate(23.92)">a</text><text class="cls-18" transform="matrix(0.86, 0.51, -0.51, 0.86, 244.25, 215.28)">r</text><text class="cls-18" transform="translate(251.31 219.52) rotate(40.55)">d</text><text class="cls-18" transform="matrix(0.73, 0.69, -0.69, 0.73, 261.08, 229.03)">s</text></g></g></svg>