<svg xmlns="http://www.w3.org/2000/svg" viewBox="0 0 425.19 464.8"><defs><style>.cls-1,.cls-12,.cls-14,.cls-2,.cls-3,.cls-4,.cls-5,.cls-6,.cls-7,.cls-8,.cls-9{fill:none;}.cls-1,.cls-12,.cls-9{stroke:#343335;}.cls-1,.cls-12,.cls-14,.cls-16,.cls-2,.cls-3,.cls-4,.cls-5,.cls-6,.cls-7,.cls-8,.cls-9{stroke-miterlimit:10;}.cls-1,.cls-2,.cls-3,.cls-4,.cls-5{stroke-width:5px;}.cls-1,.cls-11,.cls-2,.cls-3,.cls-4,.cls-5,.cls-7,.cls-8,.cls-9{isolation:isolate;}.cls-2,.cls-8{stroke:#a0a0a0;}.cls-3,.cls-7{stroke:#ffd400;}.cls-4,.cls-6{stroke:#ff4800;}.cls-5{stroke:#dedede;}.cls-6,.cls-7,.cls-8,.cls-9{stroke-width:2px;}.cls-10{fill:#343335;}.cls-11,.cls-13{fill:#3bb8e0;}.cls-11{opacity:0.6;}.cls-14{stroke:#056b86;}.cls-15{fill:#056b86;}.cls-16{font-size:26.87px;stroke:#000;stroke-width:0.5px;font-family:TimesNewRomanPSMT, Times New Roman;}.cls-17{font-family:AdobeSongStd-Light-GBpc-EUC-H, Adobe Song Std;letter-spacing:0em;}</style></defs><title>资源 19</title><g id="图层_2" data-name="图层 2"><g id="circle"><path class="cls-1" d="M129.64,449.2C51.9,422.94,2.5,352.2,2.5,265.6a196.57,196.57,0,0,1,8.08-56"/><path class="cls-2" d="M343.68,399.08A196.18,196.18,0,0,1,199.2,462.3c-22,0-48.52-5.28-68.3-12"/><path class="cls-3" d="M391.05,222a197.08,197.08,0,0,1-47.37,177.08"/><path class="cls-4" d="M383.93,197.86A196.07,196.07,0,0,1,391.05,222"/><path class="cls-5" d="M10.58,209.63a196.78,196.78,0,0,1,373.35-11.77"/><line class="cls-6" x1="379.04" y1="200.17" x2="389.85" y2="196.11"/><line class="cls-6" x1="385.65" y1="223.33" x2="396.46" y2="219.27"/><line class="cls-7" x1="386.27" y1="224.99" x2="397.08" y2="220.93"/><line class="cls-7" x1="340.01" y1="394.54" x2="348.68" y2="402.17"/><line class="cls-8" x1="338.77" y1="395.94" x2="347.44" y2="403.58"/><line class="cls-9" x1="132.38" y1="444.64" x2="127.74" y2="455.22"/></g><g id="图层_1-2" data-name="图层 1"><path class="cls-10" d="M413.79,116.1h-14.1v4.2s-1.3.1-1.3.6,1.6,1.6,1.6,1.6,1.3,7.9,5.2,7.9l.1,4.8s-.4,2.2-5.3,2.3v.8h13.1v-.8c-4.8-.1-5.3-2.3-5.3-2.3l.1-4.8c3.9,0,5.2-7.9,5.2-7.9s1.6-1,1.6-1.6-1.3-.6-1.3-.6v-4.2h-14"/><circle class="cls-11" cx="72.79" cy="117.7" r="71"/><path class="cls-10" d="M61.59,95.2s4.8-13.3,22.1-15.2c0,0-17.9,9.5-16.9,16a3.74,3.74,0,0,0,2.4-.9c1.3-1,11-11.6,20.8-12,0,0-19.6,13.7-23.6,20.5,0,0-3.7,1.5-1.4-6.1C64.89,97.6,61.39,98.1,61.59,95.2Z"/><path class="cls-10" d="M70.69,105.2s-3.9-4.9,19.7-14.6c0,0-16,9.8-16.9,15.1C73.49,105.6,71.69,106.5,70.69,105.2Z"/><circle class="cls-11" cx="174.39" cy="70.9" r="40.7" transform="translate(-13.86 72.13) rotate(-22.5)"/><line class="cls-10" x1="166.99" y1="25.2" x2="166.79" y2="25.2"/><path class="cls-10" d="M179,25.2h-.2s1.1-8.6-6.1-8.6-6.1,8.6-6.1,8.6l-10-1.7,7.9-2.4-7.9-7.9,10,3.8-4.3-12.2,8.5,10.2,1.8-15,2.3,14.4,7.7-9.1-4.1,11.4,10.3-3.5-7.7,7.4,7.7,2.3-10,2.3h-.3"/><path class="cls-10" d="M255.19,15.3s-3.5-.5-3.6,2.7a19.37,19.37,0,0,0,7.6,6s4.3-1-1.7-4.8c0,0,7.1-1.8,8.8,9.4,0,0,.7,10-9.4,9.6,0,0-1.3-.6,1.1-1.5s-2.8-1.9-3.2-.9c0,0-7.1,1.8-7.2-4.2s3.6-4.8,3.6-4.8-3.2,3,.9,5.4c0,0,5.4-1.3,8.1,2.4,0,0,3.9-3-5.5-5.1,0,0-2.8-1.3,1.1-1.7l-.1-2s-7.4-1.6-7.4-6.4a4.69,4.69,0,0,1,4.4-5S257.09,14.6,255.19,15.3Z"/><path class="cls-10" d="M416.89,147.9l1.4,12.8,1.4.6,1-9.9,1.4,10.4,1.2.6,1.3-7,.6,8.6s-8.3,2.7-8.3,15.2h-.1c0-12.6-8.3-15.2-8.3-15.2l.6-8.6,1.3,7,1.2-.6,1.4-10.4,1,9.9,1.4-.6,1.5-12.8"/><polyline class="cls-12" points="400.09 127.1 400.19 126.6 400.29 127.2"/><polygon class="cls-10" points="343.49 43.7 353.89 43.7 344.09 54.7 350.89 53.4 351.69 55.6 354.39 56.1 344.39 65.8 349.19 57.2 337.59 58.6 342.09 49.7 340.59 49 343.49 43.7"/><circle class="cls-11" cx="247.89" cy="75.5" r="33.6"/><circle class="cls-11" cx="318.79" cy="110" r="45.2"/><circle class="cls-11" cx="358.29" cy="149.7" r="10.3"/><circle class="cls-11" cx="368.19" cy="162.9" r="6.3"/><circle class="cls-13" cx="200.79" cy="265.6" r="49.9"/><g id="blue"><path class="cls-14" d="M207.19,231.8s-32.3,26.3-26.6,49c0,0,3,17.9,20.8,19,15.9,1,21.6-14.9,22.7-18.2a5.07,5.07,0,0,0,.2-1.3c.1-3.1-.2-16.5-9.9-23.7C203.29,248.3,207.19,231.8,207.19,231.8Z"/><path class="cls-15" d="M214.19,265.6s8.1,12.1,1.6,15.1c-4.8,2.2-4.6-3-4.2-5.8a5.79,5.79,0,0,1,.7-2.1C212.59,272.2,213.19,270.5,214.19,265.6Z"/></g><text class="cls-16" transform="translate(47.07 131.52)">1300</text><text class="cls-16" transform="translate(155.59 77.69)">418</text><text class="cls-16" transform="translate(229.57 82.52)">293</text><text class="cls-16" transform="translate(301.74 120.35)">528</text><text class="cls-16" transform="translate(368.79 142.85)">28</text><text class="cls-16" transform="translate(376.87 173.35)">10</text><text class="cls-16" transform="translate(345.37 227.69)">78</text><text class="cls-16" transform="translate(333.37 336.02)">719</text><text class="cls-16" transform="translate(232.21 432.68)">842 </text><text class="cls-16" transform="translate(43.54 363.85)">1,074</text><text class="cls-16" transform="translate(152.31 239.29) rotate(-51.24)">2<tspan class="cls-17" x="13.44" y="0">,</tspan></text><text class="cls-16" transform="translate(166.61 225) rotate(-45.01)">5</text><text class="cls-16" transform="translate(174.87 216.66) rotate(-19.76)">5</text><text class="cls-16" transform="translate(186.32 211.02) rotate(-0.12)">2</text><text class="cls-16" transform="translate(204.83 209.63) rotate(22.61)">c</text><text class="cls-16" transform="translate(214.99 213.12) rotate(23.92)">a</text><text class="cls-16" transform="matrix(0.86, 0.51, -0.51, 0.86, 225.56, 217.46)">r</text><text class="cls-16" transform="translate(232.62 221.7) rotate(40.55)">d</text><text class="cls-16" transform="matrix(0.73, 0.69, -0.69, 0.73, 242.39, 231.21)">s</text></g></g></svg>