<svg xmlns="http://www.w3.org/2000/svg" viewBox="0 0 402.75 472.2"><defs><style>.cls-1,.cls-12,.cls-2,.cls-3,.cls-4,.cls-5,.cls-6,.cls-7,.cls-8,.cls-9{fill:none;}.cls-1{stroke:#dedede;}.cls-1,.cls-12,.cls-13,.cls-14,.cls-15,.cls-16,.cls-2,.cls-3,.cls-4,.cls-5,.cls-6,.cls-7,.cls-8,.cls-9{stroke-miterlimit:10;}.cls-1,.cls-2,.cls-3,.cls-4,.cls-5{stroke-width:5px;}.cls-1,.cls-10,.cls-2,.cls-3,.cls-4,.cls-5,.cls-7,.cls-8,.cls-9{isolation:isolate;}.cls-12,.cls-2,.cls-9{stroke:#343335;}.cls-3,.cls-8{stroke:#a0a0a0;}.cls-4,.cls-7{stroke:#ffd400;}.cls-5,.cls-6{stroke:#ff4800;}.cls-6,.cls-7,.cls-8,.cls-9{stroke-width:2px;}.cls-10{fill:#aeab9d;opacity:0.6;}.cls-11{fill:#343335;}.cls-13,.cls-14{font-size:26.87px;}.cls-13,.cls-15{stroke:#000;}.cls-13,.cls-14,.cls-15,.cls-16{stroke-width:0.5px;font-family:TimesNewRomanPSMT, Times New Roman;}.cls-14,.cls-16{fill:#fff;stroke:#fff;}.cls-15{font-size:33.4px;}.cls-16{font-size:20.26px;}</style></defs><title>资源 23</title><g id="图层_2" data-name="图层 2"><g id="circle"><path class="cls-1" d="M13.46,213.15A225.12,225.12,0,0,1,34.74,169.4a196.7,196.7,0,0,1,36.5-43.21"/><path class="cls-2" d="M25.5,362.68C-.07,317-4.67,264.1,13.46,213.15"/><path class="cls-3" d="M253.47,463.29c-46.56,12.72-107.85,7.2-156-22.88C78.75,428.75,57.25,407.79,44,391.65c0,0-16.56-22.34-18-26.43"/><path class="cls-4" d="M256.31,462.5c46.07-12.59,84.87-41.08,112.15-84.78,7.93-12.71,15.92-31.7,20.65-45.27,0,0,9.16-18.73,7.8-72.73"/><path class="cls-5" d="M389.34,215.65c1.35,4.71,8.16,29.25,7.37,42"/><path class="cls-1" d="M71.24,126.19A196.78,196.78,0,0,1,305.76,106.7C346.55,132.16,376,171,389.11,214.86c0,0,.09.27.23.79"/><line class="cls-6" x1="383.63" y1="217.41" x2="394.6" y2="213.78"/><line class="cls-7" x1="391.16" y1="260.26" x2="402.66" y2="259.19"/><line class="cls-7" x1="254.51" y1="457.1" x2="257.82" y2="468.17"/><line class="cls-8" x1="252.57" y1="457.51" x2="255.88" y2="468.58"/><line class="cls-8" x1="30.82" y1="361.97" x2="21.28" y2="368.48"/><line class="cls-9" x1="30.27" y1="360.15" x2="20.73" y2="366.66"/><line class="cls-6" x1="390.96" y1="258.18" x2="402.46" y2="257.11"/><line class="cls-9" x1="18.77" y1="214.73" x2="8.17" y2="210.16"/></g><g id="图层_1-2" data-name="图层 1"><circle class="cls-10" cx="212.22" cy="79.11" r="79.11"/><circle class="cls-10" cx="338.64" cy="135.3" r="47.31"/><circle class="cls-10" cx="57.32" cy="139.58" r="49.02"/><path class="cls-11" d="M215.05,40.75H201V45s-1.3.1-1.3.6,1.6,1.6,1.6,1.6,1.3,7.9,5.2,7.9l.1,4.8s-.4,2.2-5.3,2.3V63h13.1v-.8c-4.8-.1-5.3-2.3-5.3-2.3l.1-4.8c3.9,0,5.2-7.9,5.2-7.9s1.6-1,1.6-1.6-1.3-.6-1.3-.6v-4.2h-14.1"/><path class="cls-11" d="M42.84,119.75s4.8-13.3,22.1-15.2c0,0-17.9,9.5-16.9,16a3.74,3.74,0,0,0,2.4-.9c1.3-1,11-11.6,20.8-12,0,0-19.6,13.7-23.6,20.5,0,0-3.7,1.5-1.4-6.1C46.24,122.15,42.64,122.65,42.84,119.75Z"/><path class="cls-11" d="M50.94,129.75s-3.9-4.9,19.7-14.6c0,0-16,9.8-16.9,15.1C53.74,130.25,51.94,131.05,50.94,129.75Z"/><line class="cls-12" x1="61.99" y1="81.25" x2="61.79" y2="81.25"/><polyline class="cls-11" points="67.69 56.05 69.99 70.45 77.69 61.35 73.59 72.75 83.89 69.25 76.19 76.65 83.89 78.95 73.89 81.25 73.59 81.25"/><path class="cls-11" d="M74.09,81.25h-.2s1.1-8.6-6.1-8.6-6.1,8.6-6.1,8.6l-10-1.7,7.9-2.4-7.9-7.9,10,3.8-4.3-12.2,8.5,10.2,1.8-15"/><path class="cls-11" d="M88.91,38.84s-3.5-.5-3.6,2.7a19.37,19.37,0,0,0,7.6,6s4.3-1-1.7-4.8c0,0,7.1-1.8,8.8,9.4,0,0,.7,10-9.4,9.6,0,0-1.3-.6,1.1-1.5s-2.8-1.9-3.2-.9c0,0-7.1,1.8-7.2-4.2s3.6-4.8,3.6-4.8-3.2,3,.9,5.4c0,0,5.4-1.3,8.1,2.4,0,0,3.9-3-5.5-5.1,0,0-2.8-1.3,1.1-1.7l-.1-2s-7.4-1.6-7.4-6.4a4.69,4.69,0,0,1,4.4-5S90.81,38.24,88.91,38.84Z"/><path class="cls-11" d="M315.6,48.4,317,61.2l1.4.6,1-9.9,1.4,10.4,1.2.6,1.3-7,.6,8.6s-8.3,2.7-8.3,15.2h-.1c0-12.6-8.3-15.2-8.3-15.2l.6-8.6,1.3,7,1.2-.6,1.4-10.4,1,9.9,1.4-.6,1.5-12.8"/><polygon class="cls-11" points="122.97 29.75 133.47 29.75 123.67 40.65 130.37 39.45 131.17 41.65 133.87 42.15 123.97 51.85 128.77 43.25 117.07 44.65 121.67 35.75 120.07 34.95 122.97 29.75"/><circle class="cls-10" cx="125.63" cy="92.59" r="8.89"/><circle class="cls-10" cx="110.55" cy="99.06" r="7.71" transform="translate(-29.5 49.84) rotate(-22.5)"/><circle class="cls-10" cx="99.15" cy="105.59" r="4.1" transform="translate(-32.86 45.98) rotate(-22.5)"/><path class="cls-11" d="M330.27,124.47s6.1-7.5,7.4-14.4a.35.35,0,0,1,.1-.2c.4-.4,2.2-1,5.6,8.4a.55.55,0,0,0,.5.3,4.45,4.45,0,0,0,2.8-2.9s1.8-2.8,3.4,4.6a5.79,5.79,0,0,0,3.3,4,.42.42,0,0,1,.1.7c-1,1-4.1,3.3-11.7,2.9h0C341.37,127.67,328.57,128.07,330.27,124.47Z"/><circle class="cls-10" cx="201.52" cy="273.6" r="49.17"/></g><g id="text"><text class="cls-13" transform="translate(336.82 246.75)">152</text><text class="cls-13" transform="translate(331.72 347.08)">934</text><text class="cls-13" transform="translate(30.12 297.99)">532</text><text class="cls-13" transform="translate(110.03 428.25)">936</text><text class="cls-14" transform="translate(37.15 158.23)">615</text><text class="cls-14" transform="translate(322.15 151.56)">582</text><text class="cls-14" transform="translate(176.49 85.96)">1,592</text><text class="cls-13" transform="translate(298.82 93.96)">2</text><text class="cls-13" transform="translate(79.15 96.3)">3</text><text class="cls-13" transform="translate(87.15 81.25)">15</text><text class="cls-13" transform="translate(110.55 72.58)">21</text><text class="cls-15" transform="translate(163.83 268.95)">2,273</text><text class="cls-16" transform="translate(158.47 294.2)">multicolor</text></g></g></svg>