<svg xmlns="http://www.w3.org/2000/svg" viewBox="0 0 35.6 31.81"><defs><style>.cls-1{fill:#343335;}</style></defs><title>资源 3</title><g id="图层_2" data-name="图层 2"><g id="图层_1-2" data-name="图层 1"><g id="creature"><path class="cls-1" d="M0,18.7S5.9,2.4,27.2,0c0,0-22,11.8-20.7,19.8a4,4,0,0,0,2.9-1.1C11,17.4,23,4.4,35,3.9c0,0-24.1,16.9-29.1,25.3,0,0-4.5,1.8-1.7-7.5C4.2,21.6-.1,22.2,0,18.7Z"/><path class="cls-1" d="M11.3,30.9s-4.8-6.1,24.3-18c0,0-19.8,12.1-20.8,18.6C14.7,31.5,12.5,32.5,11.3,30.9Z"/></g></g></g></svg>