<svg xmlns="http://www.w3.org/2000/svg" viewBox="0 0 422.3 462.64"><defs><style>.cls-1,.cls-2,.cls-3,.cls-4,.cls-5,.cls-6,.cls-7,.cls-8,.cls-9{fill:none;}.cls-1,.cls-7{stroke:#a0a0a0;}.cls-1,.cls-13,.cls-15,.cls-2,.cls-3,.cls-4,.cls-5,.cls-6,.cls-7,.cls-8,.cls-9{stroke-miterlimit:10;}.cls-1,.cls-2,.cls-3,.cls-4,.cls-9{stroke-width:5px;}.cls-1,.cls-11,.cls-12,.cls-2,.cls-3,.cls-4,.cls-6,.cls-7,.cls-8,.cls-9{isolation:isolate;}.cls-2,.cls-6{stroke:#ffd400;}.cls-3,.cls-5{stroke:#ff4800;}.cls-4{stroke:#dedede;}.cls-5,.cls-6,.cls-7,.cls-8{stroke-width:2px;}.cls-8,.cls-9{stroke:#343335;}.cls-10{fill:#343335;}.cls-11,.cls-12{fill:#9abb1d;}.cls-11{opacity:0.6;}.cls-12{opacity:0.8;}.cls-13{fill:#97b81d;stroke:#658a21;}.cls-14{fill:#2d521c;}.cls-15{font-size:26.87px;stroke:#000;stroke-width:0.5px;font-family:TimesNewRomanPSMT, Times New Roman;}.cls-16{letter-spacing:-0.04em;}.cls-17{font-family:AdobeSongStd-Light-GBpc-EUC-H, Adobe Song Std;letter-spacing:0em;}</style></defs><title>资源 20</title><g id="图层_2" data-name="图层 2"><g id="circle"><path class="cls-1" d="M343.61,400.24a196.17,196.17,0,0,1-145.9,59.85c-22-.51-45.68-5.84-65.3-13"/><path class="cls-2" d="M395.08,224.3a197.16,197.16,0,0,1-51.47,175.94"/><path class="cls-3" d="M388.51,200a195.88,195.88,0,0,1,6.57,24.3"/><path class="cls-4" d="M15,203.11A196.78,196.78,0,0,1,388.51,200"/><line class="cls-5" x1="383.57" y1="202.2" x2="394.48" y2="198.39"/><line class="cls-5" x1="389.64" y1="225.5" x2="400.55" y2="221.69"/><line class="cls-6" x1="390.23" y1="227.18" x2="401.13" y2="223.37"/><line class="cls-6" x1="340.06" y1="395.61" x2="348.55" y2="403.44"/><line class="cls-7" x1="338.78" y1="396.98" x2="347.27" y2="404.82"/><line class="cls-7" x1="135.53" y1="442.46" x2="130.64" y2="452.93"/><line class="cls-8" x1="133.53" y1="441.85" x2="128.65" y2="452.31"/><line class="cls-8" x1="21.54" y1="200.78" x2="10.37" y2="197.85"/><path class="cls-9" d="M133.08,447.69C56,419.64.55,344,2.55,257.43,3,238,10.7,216.63,16.36,199"/></g><g id="图层_1-2" data-name="图层 1"><path class="cls-10" d="M395.5,190s6.1-7.5,7.4-14.4a.35.35,0,0,1,.1-.2c.4-.4,2.2-1,5.6,8.4a.55.55,0,0,0,.5.3,4.45,4.45,0,0,0,2.8-2.9s1.8-2.8,3.4,4.6a5.79,5.79,0,0,0,3.3,4,.42.42,0,0,1,.1.7c-1,1-4.1,3.3-11.7,2.9h0C406.6,193.2,393.8,193.6,395.5,190Z"/><path class="cls-10" d="M400.2,120.2H386.1v4.2s-1.3.1-1.3.6,1.6,1.6,1.6,1.6,1.3,7.9,5.2,7.9l.1,4.8s-.4,2.2-5.3,2.3v.8h13.1v-.8c-4.8-.1-5.3-2.3-5.3-2.3l.1-4.8c3.9,0,5.2-7.9,5.2-7.9s1.6-1,1.6-1.6-1.3-.6-1.3-.6v-4.2H385.7"/><circle class="cls-11" cx="98" cy="93.1" r="78.1"/><path class="cls-10" d="M84.6,75s4.8-13.3,22.1-15.2c0,0-17.9,9.5-16.9,16a3.74,3.74,0,0,0,2.4-.9c1.3-1,11-11.6,20.8-12,0,0-19.6,13.7-23.6,20.5,0,0-3.7,1.5-1.4-6.1C88,77.4,84.4,77.8,84.6,75Z"/><path class="cls-10" d="M93.7,84.9S89.8,80,113.4,70.3c0,0-16,9.8-16.9,15.1C96.5,85.4,94.7,86.2,93.7,84.9Z"/><circle class="cls-11" cx="211.1" cy="66.2" r="37.2" transform="translate(137.91 274.98) rotate(-88.09)"/><line class="cls-10" x1="205.4" y1="25.2" x2="205.2" y2="25.2"/><path class="cls-10" d="M217.4,25.2h-.2s1.1-8.6-6.1-8.6-6.1,8.6-6.1,8.6l-10-1.7,7.9-2.4L195,13.2,205,17,200.7,4.8,209.2,15,211,0l2.3,14.4L221,5.3l-4.1,11.4,10.3-3.5-7.7,7.4,7.7,2.3-10,2.3h-.3"/><path class="cls-10" d="M292.3,19s-3.5-.5-3.6,2.7a19.37,19.37,0,0,0,7.6,6s4.3-1-1.7-4.8c0,0,7.1-1.8,8.8,9.4,0,0,.7,10-9.4,9.6,0,0-1.3-.6,1.1-1.5s-2.8-1.9-3.2-.9c0,0-7.1,1.8-7.2-4.2s3.6-4.8,3.6-4.8-3.2,3,.9,5.4c0,0,5.4-1.3,8.1,2.4,0,0,3.9-3-5.5-5.1,0,0-2.8-1.3,1.1-1.7l-.1-2s-7.4-1.6-7.4-6.4a4.69,4.69,0,0,1,4.4-5S294.2,18.3,292.3,19Z"/><path class="cls-10" d="M414,139.5l1.4,12.8,1.4.6,1-9.9,1.4,10.4,1.2.6,1.3-7,.6,8.6s-8.3,2.7-8.3,15.2h-.1c0-12.6-8.3-15.2-8.3-15.2l.6-8.6,1.3,7,1.2-.6,1.4-10.4,1,9.9,1.4-.6,1.5-12.8"/><polygon class="cls-10" points="357.7 65.2 368.2 65.2 358.4 76.2 365.1 74.9 365.9 77.1 368.6 77.6 358.7 87.3 363.5 78.7 351.8 80.1 356.4 71.2 354.8 70.5 357.7 65.2"/><circle class="cls-11" cx="281.8" cy="82" r="35.2"/><circle class="cls-11" cx="339.3" cy="122" r="34.7"/><circle class="cls-11" cx="365.3" cy="152.1" r="3.6"/><circle class="cls-11" cx="371.6" cy="161.5" r="6.4"/><circle class="cls-11" cx="376.4" cy="169.9" r="1.8"/><g id="green"><circle class="cls-12" cx="202.2" cy="261.5" r="50.4"/><path class="cls-13" d="M181.2,291.8l11.3.4,1.3,4.9a8,8,0,0,0,3.3-4.8l1.8.5s.8,4.6,2.6,4.9c0,0,2.7-2.6,2.8-4.3,0,0,3.4,4,6.3,3.8,0,0,1.4-.3,1.7-3.1,0,0,8.3.9,9.4.5,0,0,.9-1.9-1.5-2.2s3.7-.6,3.7-.6.6-3.1-11.5-3.7c0,0-3.9-1.3-3.9-4.5s-1.8-15.4,12.2-15.6c0,0,6.7-.8,11.3,4,0,0,12.2-4.2,3.4-10.8,0,0,5.2-9.9-4.7-15.8,0,0,.8-4.3-4.5-6.7,0,0-1.1-12.5-15.7-8.4,0,0-12.1-15.3-23.7,4.1,0,0-15.8-6.9-12.3,9.8l-2.8,4.3s-9.5,3.5-2.8,11.7c0,0-9.1,11.7,2,15.2,0,0,10,4.3,12.8-5.6,0,0,11.5,1.8,10.4,15l-14.8,5C179.3,290.1,175.3,291.5,181.2,291.8Z"/><path class="cls-14" d="M186.2,263.7c2.5-.7,8-1.5,9.5,4.3a.38.38,0,0,1-.6.4,25.27,25.27,0,0,0-8.9-3.9C185.9,264.3,185.9,263.8,186.2,263.7Z"/><path class="cls-14" d="M187.5,255.5c1.2-.6,3.9-1.8,5.6,1.1.2.3-.1.6-.4.6a23.63,23.63,0,0,1-5.2-.9A.47.47,0,0,1,187.5,255.5Z"/><path class="cls-14" d="M197.8,249.9c.8-.1,3.4-.1,2.2,3.4a.48.48,0,0,1-.6.2c-.8-.6-2.4-2-1.9-3.4C197.5,250,197.6,249.9,197.8,249.9Z"/><path class="cls-14" d="M209.4,250c1.8.4,7.4,2.4.1,7.6a.37.37,0,0,1-.6-.3v-6.9C209,250.1,209.2,249.9,209.4,250Z"/><path class="cls-14" d="M211.3,265.1l4.8-4.3a.6.6,0,0,1,.4-.1,4.53,4.53,0,0,1,2.5,2.6c.1.2-.1.4-.3.5l-7,1.9C211.2,265.8,210.9,265.3,211.3,265.1Z"/></g><text class="cls-15" transform="translate(68.93 114.34)">1587</text><text class="cls-15" transform="translate(194 71.66)">362</text><text class="cls-15" transform="translate(261.93 88.3)">322</text><text class="cls-15" transform="translate(321.1 131.3)">317</text><text class="cls-15" transform="translate(380.4 163.93)"><tspan class="cls-16">1</tspan><tspan x="12.44" y="0">1</tspan></text><text class="cls-15" transform="translate(371.95 148.5)">4</text><text class="cls-15" transform="translate(348.3 229.51)">75</text><text class="cls-15" transform="translate(333.73 333.09)">710</text><text class="cls-15" transform="translate(232.65 430.19)">848</text><text class="cls-15" transform="translate(40.9 362.67)">1,096</text><text class="cls-15" transform="translate(378.7 186.25)">1 </text><text class="cls-15" transform="translate(153.82 235.67) rotate(-51.24)">2<tspan class="cls-17" x="13.44" y="0">,</tspan></text><text class="cls-15" transform="translate(168.12 221.38) rotate(-45.01)">5</text><text class="cls-15" transform="translate(176.38 213.04) rotate(-19.76)">8</text><text class="cls-15" transform="translate(187.83 207.4) rotate(-0.12)">0</text><text class="cls-15" transform="translate(206.34 206.01) rotate(22.61)">c</text><text class="cls-15" transform="translate(216.49 209.51) rotate(23.92)">a</text><text class="cls-15" transform="matrix(0.86, 0.51, -0.51, 0.86, 227.07, 213.84)">r</text><text class="cls-15" transform="translate(234.13 218.08) rotate(40.55)">d</text><text class="cls-15" transform="matrix(0.73, 0.69, -0.69, 0.73, 243.9, 227.59)">s</text></g></g></svg>