<svg xmlns="http://www.w3.org/2000/svg" viewBox="0 0 404.23 451.12"><defs><style>.cls-1,.cls-12,.cls-2,.cls-3,.cls-4,.cls-5,.cls-6,.cls-7,.cls-8,.cls-9{fill:none;}.cls-1{stroke:#dedede;}.cls-1,.cls-12,.cls-13,.cls-14,.cls-15,.cls-2,.cls-3,.cls-4,.cls-5,.cls-6,.cls-7,.cls-8,.cls-9{stroke-miterlimit:10;}.cls-1,.cls-2,.cls-3,.cls-4,.cls-9{stroke-width:5px;}.cls-1,.cls-11,.cls-2,.cls-3,.cls-4,.cls-6,.cls-7,.cls-8,.cls-9{isolation:isolate;}.cls-12,.cls-2,.cls-8{stroke:#343335;}.cls-3,.cls-7{stroke:#a0a0a0;}.cls-4,.cls-6{stroke:#ffd400;}.cls-5,.cls-9{stroke:#ff4800;}.cls-5,.cls-6,.cls-7,.cls-8{stroke-width:2px;}.cls-10{fill:#343335;}.cls-11{fill:#c2a843;opacity:0.6;}.cls-13{font-size:26.87px;}.cls-13,.cls-14,.cls-15{stroke:#000;stroke-width:0.5px;font-family:TimesNewRomanPSMT, Times New Roman;}.cls-14{font-size:33.4px;}.cls-15{font-size:19.34px;}</style></defs><title>资源 24</title><g id="图层_2" data-name="图层 2"><g id="circle"><path class="cls-1" d="M392.65,190.5s9.87,12.06,5.72,80.49"/><path class="cls-1" d="M17,188.79A225.12,225.12,0,0,1,38.28,145a196.41,196.41,0,0,1,36.5-43.2"/><path class="cls-2" d="M5.81,256.15a175.72,175.72,0,0,0,22.51,82.54S34.76,353,40,358.54"/><path class="cls-1" d="M17,188.79A189.11,189.11,0,0,0,5.81,256.15"/><path class="cls-3" d="M214.51,444.64C176.59,445.87,135,437.27,101,416.06c-18.69-11.67-40.19-32.63-53.43-48.77,0,0-4.74-4.34-6.14-8.43"/><path class="cls-4" d="M259.26,438.14a195.19,195.19,0,0,1-44.75,6.5"/><path class="cls-4" d="M259.26,438.14c46.06-12.58,85.46-41.08,112.74-84.78,2.15-3.45,4.31-7.37,6.41-11.51"/><path class="cls-1" d="M74.78,101.84A196.77,196.77,0,0,1,309.3,82.34c40.79,25.46,70.23,64.33,83.35,108.16,0,0,.09.28.23.79"/><line class="cls-5" x1="392.65" y1="270.15" x2="404.08" y2="271.83"/><line class="cls-6" x1="377.81" y1="343" x2="382.51" y2="345.71"/><line class="cls-6" x1="372.51" y1="339.94" x2="377.81" y2="343"/><line class="cls-6" x1="213.88" y1="439.57" x2="213.88" y2="451.12"/><line class="cls-7" x1="212.07" y1="439.57" x2="212.07" y2="451.12"/><line class="cls-7" x1="45.5" y1="356.84" x2="35.96" y2="363.35"/><line class="cls-8" x1="44.43" y1="355.48" x2="34.89" y2="361.99"/><line class="cls-5" x1="373.29" y1="338.58" x2="383.29" y2="344.36"/><line class="cls-8" x1="11.58" y1="256.24" x2="0.05" y2="256.76"/><path class="cls-9" d="M398.37,271s-7.43,53.46-20,70.86"/></g><g id="图层_1-2" data-name="图层 1"><path class="cls-10" d="M368.21,41.3h-14.1v4.2s-1.3.1-1.3.6,1.6,1.6,1.6,1.6,1.3,7.9,5.2,7.9l.1,4.8s-.4,2.2-5.3,2.3v.8h13.1v-.8c-4.8-.1-5.3-2.3-5.3-2.3l.1-4.8c3.9,0,5.2-7.9,5.2-7.9s1.6-1,1.6-1.6-1.3-.6-1.3-.6V41.3h-14.1"/><circle class="cls-11" cx="99.83" cy="82.17" r="63.14"/><path class="cls-10" d="M86.49,63.25s4.8-13.3,22.1-15.2c0,0-17.9,9.5-16.9,16a3.74,3.74,0,0,0,2.4-.9c1.3-1,11-11.6,20.8-12,0,0-19.6,13.7-23.6,20.5,0,0-3.7,1.5-1.4-6.1C89.89,65.65,86.29,66.15,86.49,63.25Z"/><path class="cls-10" d="M94.59,73.25s-3.9-4.9,19.7-14.6c0,0-16,9.8-16.9,15.1C97.39,73.75,95.59,74.55,94.59,73.25Z"/><circle class="cls-11" cx="183.49" cy="53.37" r="25.64"/><line class="cls-12" x1="173.27" y1="25.2" x2="173.07" y2="25.2"/><polyline class="cls-10" points="178.97 0 181.27 14.4 188.97 5.3 184.87 16.7 195.17 13.2 187.47 20.6 195.17 22.9 185.17 25.2 184.87 25.2"/><path class="cls-10" d="M185.37,25.2h-.2s1.1-8.6-6.1-8.6-6.1,8.6-6.1,8.6l-10-1.7,7.9-2.4L163,13.2,173,17l-4.3-12.2,8.5,10.2L179,0"/><path class="cls-10" d="M239.11,6.63s-3.5-.5-3.6,2.69a19.37,19.37,0,0,0,7.6,6s4.3-1-1.7-4.8c0,0,7.1-1.8,8.8,9.4,0,0,.7,10-9.4,9.6,0,0-1.3-.6,1.1-1.5s-2.8-1.9-3.2-.9c0,0-7.1,1.8-7.2-4.2s3.6-4.8,3.6-4.8-3.2,3,.9,5.4c0,0,5.4-1.3,8.1,2.4,0,0,3.9-3-5.5-5.1,0,0-2.8-1.3,1.1-1.69l-.1-2s-7.4-1.6-7.4-6.41a4.69,4.69,0,0,1,4.4-5S241,6,239.11,6.63Z"/><path class="cls-10" d="M391.66,72.2l1.4,12.8,1.4.6,1-9.9,1.4,10.4,1.2.6,1.3-7,.6,8.6s-8.3,2.7-8.3,15.2h-.1c0-12.6-8.3-15.2-8.3-15.2l.6-8.6,1.3,7,1.2-.6,1.4-10.4,1,9.9,1.4-.6,1.5-12.8"/><polygon class="cls-10" points="299.26 20.05 309.76 20.05 299.96 30.95 306.66 29.75 307.46 31.95 310.16 32.45 300.26 42.15 305.06 33.55 293.36 34.95 297.96 26.05 296.36 25.25 299.26 20.05"/><circle class="cls-11" cx="233.88" cy="57.42" r="24.75"/><circle class="cls-11" cx="285.47" cy="71.96" r="27.54"/><circle class="cls-11" cx="321.58" cy="91.9" r="13.9"/><circle class="cls-11" cx="341.62" cy="110.69" r="11.19" transform="translate(-16.36 139.16) rotate(-22.5)"/><circle class="cls-11" cx="203.64" cy="249.24" r="50.01"/></g><g id="text"><text class="cls-13" transform="translate(70.86 101.84)">1,027</text><text class="cls-13" transform="translate(161.97 61.61)">167</text><text class="cls-13" transform="translate(212.33 66.32)">158</text><text class="cls-13" transform="translate(269.08 80.94)">197</text><text class="cls-13" transform="translate(351.19 102.84)">35</text><text class="cls-13" transform="translate(325.41 78)">51</text><text class="cls-13" transform="translate(333.7 304.47)">205</text><text class="cls-13" transform="translate(272.83 391.81)">584</text><text class="cls-13" transform="translate(39.66 317.05)">306</text><text class="cls-13" transform="translate(109.58 403.89)">569</text><text class="cls-14" transform="translate(164.97 244.59)">1,587</text><text class="cls-15" transform="translate(164.34 269.07)">multicolor</text></g></g></svg>