<svg xmlns="http://www.w3.org/2000/svg" viewBox="0 0 430.7 459.23"><defs><style>.cls-1,.cls-2,.cls-3,.cls-4,.cls-5,.cls-6,.cls-7,.cls-8,.cls-9{fill:none;}.cls-1,.cls-9{stroke:#343335;}.cls-1,.cls-14,.cls-2,.cls-3,.cls-4,.cls-5,.cls-6,.cls-7,.cls-8,.cls-9{stroke-miterlimit:10;}.cls-1,.cls-2,.cls-3,.cls-4,.cls-5{stroke-width:5px;}.cls-1,.cls-11,.cls-2,.cls-3,.cls-4,.cls-5,.cls-7,.cls-8,.cls-9{isolation:isolate;}.cls-2,.cls-8{stroke:#a0a0a0;}.cls-3,.cls-7{stroke:#ffd400;}.cls-4,.cls-6{stroke:#ff4800;}.cls-5{stroke:#dedede;}.cls-6,.cls-7,.cls-8,.cls-9{stroke-width:2px;}.cls-10{fill:#343335;}.cls-11{fill:#d93a15;opacity:0.6;}.cls-12{fill:#db3a16;}.cls-13{fill:#ec5c2c;}.cls-14{font-size:26.87px;stroke:#000;stroke-width:0.5px;font-family:TimesNewRomanPSMT, Times New Roman;}.cls-15{font-family:AdobeSongStd-Light-GBpc-EUC-H, Adobe Song Std;letter-spacing:0em;}</style></defs><title>资源 21</title><g id="图层_2" data-name="图层 2"><g id="circle"><path class="cls-1" d="M122.24,441.1C45.12,413.09.6,342.16,2.56,255.58a197,197,0,0,1,9.34-55.77"/><path class="cls-2" d="M340.63,396.75c-33.55,34.7-89.08,61.22-145.87,59.93-22-.49-51.21-7.55-70.83-14.68"/><path class="cls-3" d="M390.53,215c2.85,14.09,5.67,34.5,5.33,49.47-1.16,51.51-20,95.81-53.2,130.14"/><path class="cls-4" d="M385.42,196.5c.71,2.07,2.47,3.19,5.38,17.57"/><path class="cls-5" d="M11.9,199.81a196.77,196.77,0,0,1,373.52-3.31"/><line class="cls-6" x1="380.48" y1="198.69" x2="391.38" y2="194.88"/><line class="cls-6" x1="385.01" y1="215.98" x2="395.91" y2="212.16"/><line class="cls-7" x1="385.68" y1="217.89" x2="396.58" y2="214.07"/><line class="cls-7" x1="338.36" y1="390.9" x2="346.86" y2="398.73"/><line class="cls-8" x1="336.9" y1="392.24" x2="345.39" y2="400.07"/><line class="cls-8" x1="126.33" y1="436.97" x2="121.45" y2="447.43"/><line class="cls-9" x1="124.49" y1="435.96" x2="119.6" y2="446.43"/><line class="cls-9" x1="17.49" y1="201.51" x2="6.31" y2="198.59"/></g><g id="图层_1-2" data-name="图层 1"><path class="cls-10" d="M409.6,133.8H395.5V138s-1.3.1-1.3.6,1.6,1.6,1.6,1.6,1.3,7.9,5.2,7.9l.1,4.8s-.4,2.2-5.3,2.3v.8h13.1v-.8c-4.8-.1-5.3-2.3-5.3-2.3l.1-4.8c3.9,0,5.2-7.9,5.2-7.9s1.6-1,1.6-1.6-1.3-.6-1.3-.6v-4.2H395.1"/><circle class="cls-11" cx="93.4" cy="94.2" r="74.1"/><path class="cls-10" d="M82.3,72s4.8-13.3,22.1-15.2c0,0-17.9,9.5-16.9,16a3.74,3.74,0,0,0,2.4-.9c1.3-1,11-11.6,20.8-12,0,0-19.6,13.7-23.6,20.5,0,0-3.7,1.5-1.4-6.1C85.7,74.4,82.2,74.8,82.3,72Z"/><path class="cls-10" d="M91.5,82s-3.9-4.9,19.7-14.6c0,0-16,9.8-16.9,15.1C94.2,82.4,92.5,83.2,91.5,82Z"/><circle class="cls-11" cx="199.8" cy="66.6" r="36"/><line class="cls-10" x1="196" y1="25.2" x2="195.8" y2="25.2"/><path class="cls-10" d="M208,25.2h-.2s1.1-8.6-6.1-8.6-6.1,8.6-6.1,8.6l-10-1.7,7.9-2.4-7.9-7.9,10,3.8L191.3,4.8,199.8,15l1.8-15,2.3,14.4,7.7-9.1-4.1,11.4,10.3-3.5-7.7,7.4,7.7,2.3-10,2.3h-.3"/><path class="cls-10" d="M285.3,14.4s-3.5-.5-3.6,2.7a19.37,19.37,0,0,0,7.6,6s4.3-1-1.7-4.8c0,0,7.1-1.8,8.8,9.4,0,0,.7,10-9.4,9.6,0,0-1.3-.6,1.1-1.5s-2.8-1.9-3.2-.9c0,0-7.1,1.8-7.2-4.2s3.6-4.8,3.6-4.8-3.2,3,.9,5.4c0,0,5.4-1.3,8.1,2.4,0,0,3.9-3-5.5-5.1,0,0-2.8-1.3,1.1-1.7l-.1-2s-7.4-1.6-7.4-6.4a4.69,4.69,0,0,1,4.4-5S287.2,13.7,285.3,14.4Z"/><path class="cls-10" d="M422.3,163.7l1.4,12.8,1.4.6,1-9.9,1.5,10.4,1.2.6,1.3-7,.6,8.6s-8.3,2.7-8.3,15.2h-.1c0-12.6-8.3-15.2-8.3-15.2l.6-8.6,1.3,7,1.2-.6,1.5-10.4,1,9.9,1.4-.6,1.3-12.8"/><polygon class="cls-10" points="369.3 64.8 379.8 64.8 370 75.8 376.7 74.5 377.5 76.7 380.2 77.2 370.3 86.9 375.1 78.3 363.4 79.8 368 70.8 366.4 70.1 369.3 64.8"/><circle class="cls-11" cx="276.6" cy="80.6" r="40.6"/><circle class="cls-11" cx="340.1" cy="125.6" r="38.7"/><circle class="cls-11" cx="368.1" cy="159" r="4.7"/><circle class="cls-11" cx="374.5" cy="169.2" r="6.3"/><circle class="cls-12" cx="199.6" cy="260.8" r="50.1"/><g id="red"><path class="cls-13" d="M209.4,254.9s-7.8,5.6-13.8,5.4c0,0-24.4-6.3-24.5,18.3-.1,21,18.6,17.7,24.2,16.3a12.42,12.42,0,0,1,3.3-.4c4,.1,13.9-.2,17.3-3.8,0,0-10.9-.5-11.6-2.3a22.89,22.89,0,0,1,12.8-2.9c6.8.7,16.2-8.8,14-13.4,0,0-9.8,6-11.7,4.8s11.9-7.9,12.3-22.1c0,0,1.4-9.3-8.8-16.5,0,0,4.4,10.8,1.8,11.9,0,0-2.2-16.5-19.2-21.3,0,0-14.1-3.2-20.7,1.3,0,0,13.3.8,15.6,5,0,0-2.3,3.4-9.5,1.5,0,0,6.4,7.6,14.8.7a1.81,1.81,0,0,1,2.1-.2c2.3,1.2,7,4.2,4.3,9.5-.1.1-.2.2-.3.1-.7-.7-3.2-3.2-3.7-4.9,0,0-3.6,10.7,10,13.8a.66.66,0,0,1,.4.5c-.4,1.9-1.8,9.2-3.6,8.4-2-.9.2-8.3.2-8.3s-3.9-3.5-4.4,13.2a2.2,2.2,0,0,1-.6,1.5c-2.2,2.5-10.1,11.1-10,2.4a1.86,1.86,0,0,1,.9-1.5C203.5,270.3,210.6,265.2,209.4,254.9Z"/><path class="cls-13" d="M190.8,241.1s4.2,4.1,9,.8c0,0,5.6-1.4,5.1,2.6S193.5,252.3,190.8,241.1Z"/><path class="cls-13" d="M171,242.5s4.1-10.8,10.9-10.6c4.1.1,5.3,1.5,5.6,2.6a1.41,1.41,0,0,1-.8,1.6c-2.1,1-7.5,3.9-7.2,7.7,0,0-2.5,1.7-2-3.6C177.6,240.3,171.9,244.7,171,242.5Z"/></g><text class="cls-14" transform="translate(152.83 232.67) rotate(-51.24)">2<tspan class="cls-15" x="13.44" y="0">,</tspan></text><text class="cls-14" transform="translate(167.13 218.38) rotate(-45.01)">5</text><text class="cls-14" transform="translate(175.39 210.04) rotate(-19.76)">7</text><text class="cls-14" transform="translate(186.84 204.4) rotate(-0.12)">4</text><text class="cls-14" transform="translate(205.35 203.01) rotate(22.61)">c</text><text class="cls-14" transform="translate(215.5 206.51) rotate(23.92)">a</text><text class="cls-14" transform="matrix(0.86, 0.51, -0.51, 0.86, 226.08, 210.84)">r</text><text class="cls-14" transform="translate(233.14 215.08) rotate(40.55)">d</text><text class="cls-14" transform="matrix(0.73, 0.69, -0.69, 0.73, 242.91, 224.59)">s</text></g><g id="text"><text class="cls-14" transform="translate(67.14 108.14)">1433</text><text class="cls-14" transform="translate(184.6 71.9)">333</text><text class="cls-14" transform="translate(255.6 86.9)">421</text><text class="cls-14" transform="translate(322.8 133.8)">383</text><text class="cls-14" transform="translate(377.8 159)">5</text><text class="cls-14" transform="translate(383.35 181.41)">12</text><text class="cls-14" transform="translate(341.66 222.06)">75</text><text class="cls-14" transform="translate(329.44 337.39)">710 </text><text class="cls-14" transform="translate(226.1 428.3)">863 </text><text class="cls-14" transform="translate(47.85 369.71)">1,081</text></g></g></svg>