<svg xmlns="http://www.w3.org/2000/svg" viewBox="0 0 418.2 467.7"><defs><style>.cls-1,.cls-13,.cls-2,.cls-3,.cls-4,.cls-5,.cls-6,.cls-7,.cls-8,.cls-9{fill:none;}.cls-1,.cls-9{stroke:#343335;}.cls-1,.cls-13,.cls-14,.cls-2,.cls-3,.cls-4,.cls-5,.cls-6,.cls-7,.cls-8,.cls-9{stroke-miterlimit:10;}.cls-1,.cls-2,.cls-3,.cls-4,.cls-5{stroke-width:5px;}.cls-1,.cls-11,.cls-2,.cls-3,.cls-4,.cls-5,.cls-7,.cls-8,.cls-9{isolation:isolate;}.cls-2,.cls-8{stroke:#a0a0a0;}.cls-3,.cls-7{stroke:#ffd400;}.cls-4,.cls-6{stroke:#ff4800;}.cls-5{stroke:#dedede;}.cls-6,.cls-7,.cls-8,.cls-9{stroke-width:2px;}.cls-10{fill:#343335;}.cls-11{fill:#dddccf;opacity:0.6;}.cls-12{fill:#dbdacd;}.cls-13{stroke:#7f7b73;}.cls-14{font-size:26.87px;stroke:#000;stroke-width:0.5px;font-family:TimesNewRomanPSMT, Times New Roman;}.cls-15{letter-spacing:-0.04em;}.cls-16{font-family:AdobeSongStd-Light-GBpc-EUC-H, Adobe Song Std;letter-spacing:0em;}</style></defs><title>资源 25</title><g id="图层_2" data-name="图层 2"><g id="circle"><path class="cls-1" d="M143.3,454.89A197,197,0,0,1,17.68,212.53"/><path class="cls-2" d="M350.78,402A197,197,0,0,1,143.3,454.89"/><path class="cls-3" d="M398.15,224.9A197.08,197.08,0,0,1,350.78,402"/><path class="cls-4" d="M391,200.76a196.07,196.07,0,0,1,7.12,24.14"/><path class="cls-5" d="M17.68,212.53A196.78,196.78,0,0,1,391,200.76"/><line class="cls-6" x1="386.14" y1="203.08" x2="396.95" y2="199.01"/><line class="cls-6" x1="392.75" y1="226.23" x2="403.56" y2="222.17"/><line class="cls-7" x1="393.37" y1="227.89" x2="404.18" y2="223.83"/><line class="cls-7" x1="347.11" y1="397.44" x2="355.78" y2="405.07"/><line class="cls-8" x1="345.87" y1="398.84" x2="354.54" y2="406.48"/><line class="cls-8" x1="146.31" y1="450.17" x2="141.66" y2="460.75"/><line class="cls-9" x1="144.59" y1="449.42" x2="139.95" y2="459.99"/><line class="cls-9" x1="23.3" y1="214.1" x2="12.06" y2="211.43"/></g><g id="图层_1-2" data-name="图层 1"><path class="cls-10" d="M387.9,83.6H373.8v4.2s-1.3.1-1.3.6,1.6,1.6,1.6,1.6,1.3,7.9,5.2,7.9l.1,4.8s-.4,2.2-5.3,2.3v.8h13.1V105c-4.8-.1-5.3-2.3-5.3-2.3l.1-4.8c3.9,0,5.2-7.9,5.2-7.9s1.6-1,1.6-1.6-1.3-.6-1.3-.6V83.6H373.4"/><circle class="cls-11" cx="75.9" cy="122.4" r="75.9" transform="translate(-64.32 89.52) rotate(-45)"/><path class="cls-10" d="M65.6,104.7s4.8-13.3,22.1-15.2c0,0-17.9,9.5-16.9,16a3.74,3.74,0,0,0,2.4-.9c1.3-1,11-11.6,20.8-12,0,0-19.6,13.7-23.6,20.5,0,0-3.7,1.5-1.4-6.1C69,107.1,65.5,107.5,65.6,104.7Z"/><path class="cls-10" d="M74.8,114.6s-3.9-4.9,19.7-14.6c0,0-16,9.8-16.9,15.1C77.5,115.1,75.8,115.9,74.8,114.6Z"/><circle class="cls-11" cx="183.1" cy="71.8" r="42.7"/><line class="cls-10" x1="175.8" y1="25.2" x2="175.5" y2="25.2"/><path class="cls-10" d="M187.8,25.2h-.2s1.1-8.6-6.1-8.6-6.1,8.6-6.1,8.6l-10-1.7,7.9-2.4-7.9-7.9,10,3.8L171.1,4.8,179.6,15l1.8-15,2.3,14.4,7.7-9.1-4.1,11.4,10.3-3.5-7.7,7.4,7.7,2.3-10,2.3h-.3"/><path class="cls-10" d="M256.9,22.2s-3.5-.5-3.6,2.7a19.37,19.37,0,0,0,7.6,6s4.3-1-1.7-4.8c0,0,7.1-1.8,8.8,9.4,0,0,.7,10-9.4,9.6,0,0-1.3-.6,1.1-1.5s-2.8-1.9-3.2-.9c0,0-7.1,1.8-7.2-4.2s3.6-4.8,3.6-4.8-3.2,3,.9,5.4c0,0,5.4-1.3,8.1,2.4,0,0,3.9-3-5.5-5.1,0,0-2.8-1.3,1.1-1.7l-.1-2s-7.4-1.6-7.4-6.4a4.69,4.69,0,0,1,4.4-5S258.8,21.6,256.9,22.2Z"/><path class="cls-10" d="M409.9,131.3l1.4,12.8,1.4.6,1-9.9,1.4,10.4,1.2.6,1.3-7,.6,8.6s-8.3,2.7-8.3,15.2h-.1c0-12.6-8.3-15.2-8.3-15.2l.6-8.6,1.3,7,1.2-.6,1.4-10.4,1,9.9,1.4-.6,1.5-12.8"/><polygon class="cls-10" points="338.5 43 348.9 43 339.1 53.9 345.8 52.6 346.7 54.8 349.4 55.3 339.4 65.1 344.2 56.5 332.6 57.9 337.1 49 335.6 48.2 338.5 43"/><circle class="cls-11" cx="254.1" cy="76.9" r="28.2"/><circle class="cls-11" cx="317.6" cy="103.9" r="41"/><circle class="cls-11" cx="363.8" cy="147" r="7.1"/><circle class="cls-11" cx="354.3" cy="135.7" r="7.3"/><g id="white"><circle class="cls-12" cx="207.4" cy="268.1" r="49.9"/><path class="cls-13" d="M191.6,262.7c-7.9-4.8-8.8,4.9-8.8,4.9l-7.9-3.7s2.3,3.8,5.8,9.4,5.4-.1,5.4-.1c6.9-1.8,7.2,2.7,7.2,2.7v-.2c-8.6,3.4-3.3,10.1-3.3,10.1l-7.8,4s4.5.5,11,1.1,3.2-4.3,3.2-4.3c2.7-6.6,7-2,7-2l.2-.3c-3.9,8.4,5.3,9.4,5.3,9.4L206,302s3.5-2.7,8.7-6.8-.7-5.3-.7-5.3c-2.6-6.6,2.2-5.6,2.2-5.6l-.2-.4c3.6,8.5,10.5,2.4,10.5,2.4l4.2,7.7s.3-4.5.8-11-4.4-3.1-4.4-3.1c-6.6-2.6-1.4-6.6-1.4-6.6,8.1,4.5,9.6-4.2,9.6-4.2l8,3.4s-2.5-3.7-6.1-9.2-5.4.3-5.4.3c-6.8,2.1-5.9-3.1-5.9-3.1,8.6-3.5,2.6-10.5,2.6-10.5l7.8-4.1-11-1c-6.5-.6-3.2,4.4-3.2,4.4-2.7,6.6-7.2,1.4-7.2,1.4l.2.2c3-8.8-5.9-9.7-5.9-9.7l2-8.5s-3.2,3.1-7.9,7.7,1.2,5.2,1.2,5.2c3.3,6.3-3.6,6.4-3.6,6.4h.3c-3.2-8.7-10.4-2.9-10.4-2.9l-3.8-7.9s-.6,4.4-1.4,10.9,4.3,3.3,4.3,3.3c6.5,2.9,1.2,7.3,1.2,7.3"/><circle class="cls-13" cx="208.5" cy="267.1" r="14.1"/></g><text class="cls-14" transform="translate(50.53 141.93)">1477</text><text class="cls-14" transform="translate(160.37 81.1)">470</text><text class="cls-14" transform="translate(233.03 85.43)">206</text><text class="cls-14" transform="translate(295.2 113.77)">431</text><text class="cls-14" transform="translate(354.7 126.27)">15</text><text class="cls-14" transform="translate(371.5 154.1)">13</text><text class="cls-14" transform="translate(348.83 229.6)">75</text><text class="cls-14" transform="translate(338.83 337.43)">7<tspan class="cls-15" x="13.44" y="0">1</tspan><tspan x="25.87" y="0">1</tspan></text><text class="cls-14" transform="translate(239 433.59)">850</text><text class="cls-14" transform="translate(49.5 365.26)">1,104</text><text class="cls-14" transform="translate(158.98 240.37) rotate(-51.24)">2<tspan class="cls-16" x="13.44" y="0">,</tspan></text><text class="cls-14" transform="translate(173.28 226.08) rotate(-45.01)">5</text><text class="cls-14" transform="translate(181.55 217.74) rotate(-19.76)">8</text><text class="cls-14" transform="translate(192.99 212.1) rotate(-0.12)">6</text><text class="cls-14" transform="translate(211.5 210.71) rotate(22.61)">c</text><text class="cls-14" transform="translate(221.66 214.21) rotate(23.92)">a</text><text class="cls-14" transform="matrix(0.86, 0.51, -0.51, 0.86, 232.24, 218.54)">r</text><text class="cls-14" transform="translate(239.29 222.78) rotate(40.55)">d</text><text class="cls-14" transform="matrix(0.73, 0.69, -0.69, 0.73, 249.06, 232.29)">s</text></g></g></svg>