<svg xmlns="http://www.w3.org/2000/svg" viewBox="0 0 37.19 33.1"><defs><style>.cls-1{fill:none;stroke:#343335;stroke-miterlimit:10;}</style></defs><title>资源 3</title><g id="图层_2" data-name="图层 2"><g id="图层_1-2" data-name="图层 1"><g id="creature"><path class="cls-1" d="M.5,19.49S6.4,3.19,27.7.79c0,0-22,11.8-20.7,19.8a4,4,0,0,0,2.9-1.1c1.6-1.3,13.6-14.3,25.6-14.8,0,0-24.1,16.9-29.1,25.3,0,0-4.5,1.8-1.7-7.5C4.7,22.39.4,23,.5,19.49Z"/><path class="cls-1" d="M11.8,31.69s-4.8-6.1,24.3-18c0,0-19.8,12.1-20.8,18.6C15.2,32.29,13,33.29,11.8,31.69Z"/></g></g></g></svg>