<svg xmlns="http://www.w3.org/2000/svg" viewBox="0 0 29.76 23.01"><defs><style>.cls-1{fill:none;stroke:#343335;stroke-miterlimit:10;}</style></defs><title>资源 10</title><g id="图层_2" data-name="图层 2"><g id="图层_1-2" data-name="图层 1"><g id="land"><path class="cls-1" d="M.68,18.59s7.4-9.1,9-17.6c0-.1.1-.2.2-.3.5-.4,2.7-1.2,6.9,10.2a.49.49,0,0,0,.6.3c.8-.2,2.4-.9,3.5-3.5,0,0,2.2-3.4,4.1,5.6a6.69,6.69,0,0,0,4,4.8.47.47,0,0,1,.1.8c-1.2,1.3-5,4.1-14.3,3.5h0C14.28,22.59-1.32,23.09.68,18.59Z"/></g></g></g></svg>