<svg xmlns="http://www.w3.org/2000/svg" viewBox="0 0 26.92 34.22"><defs><style>.cls-1{fill:none;stroke:#343335;stroke-miterlimit:10;}</style></defs><title>资源 6</title><g id="图层_2" data-name="图层 2"><g id="图层_1-2" data-name="图层 1"><g id="sorcery"><path class="cls-1" d="M11.11,2s-4.9-.7-4.9,3.7A27.41,27.41,0,0,0,16.71,14s6-1.4-2.4-6.7c0,0,9.9-2.5,12.1,13.1,0,0,1,13.9-13.1,13.3,0,0-1.8-.8,1.6-2.1s-3.8-2.7-4.4-1.2c0,0-9.8,2.4-10-5.9s5-6.6,5-6.6-4.4,4.1,1.2,7.4c0,0,7.5-1.8,11.3,3.3,0,0,5.4-4.1-7.6-7.1,0,0-3.8-1.8,1.6-2.4l-.1-2.8S1.71,14,1.71,7.4A6.51,6.51,0,0,1,7.81.5S13.81,1,11.11,2Z"/></g></g></g></svg>